# xmcd
#
# Track frame offsets:
# 150
# 10742
# 22123
# 33054
# 43706
# 54997
# 63189
# 72941
# 85303
# 97035
# 108273
# 116181
# 122536
# 132897
# 145349
#
# Disc length: 2081 seconds
#
#
# Revision: 0
# Processed by: cddbd v1.5.1PL0 Copyright (c) Steve Scherf et al.
# Submitted via: FreeRIP 2.931 
#
DISCID=c8081f0f
DTITLE=Wilson Douglas - The Right Hand of Rush's Creek 
DYEAR=1900
DGENRE=Country
TTITLE0=Cotton Eyed Joe
TTITLE1=Rocky Road to Dublin
TTITLE2=Little Rose
TTITLE3=Walking in the Parlor
TTITLE4=Elzic's Farewell
TTITLE5=Yew Piney Mountain
TTITLE6=Shelvin' Rock
TTITLE7=Camp Chase
TTITLE8=West Fork Girls
TTITLE9=Brushy Run
TTITLE10=Old Christmas Morning
TTITLE11=Chicken Reel
TTITLE12=Paddy On the Turnpike
TTITLE13=Forked Buck
TTITLE14=Old Mother Flanagan
EXTD=
EXTT0=
EXTT1=
EXTT2=
EXTT3=
EXTT4=
EXTT5=
EXTT6=
EXTT7=
EXTT8=
EXTT9=
EXTT10=
EXTT11=
EXTT12=
EXTT13=
EXTT14=
PLAYORDER=
